<svg width="450" height="450" viewBox="0 0 450 450" fill="none" xmlns="http://www.w3.org/2000/svg">
<path fill-rule="evenodd" clip-rule="evenodd" d="M100 0C44.7715 0 0 44.7715 0 100V350C0 405.228 44.7715 450 100 450H350C405.228 450 450 405.228 450 350V100C450 44.7715 405.228 0 350 0H100ZM367.009 140H127.009C115.963 140 107.009 148.954 107.009 160C107.009 171.046 115.963 180 127.009 180H367.009C378.054 180 387.009 171.046 387.009 160C387.009 148.954 378.054 140 367.009 140ZM333.009 214H103.009C91.9631 214 83.0088 222.954 83.0088 234C83.0088 245.046 91.9631 254 103.009 254H333.009C344.054 254 353.009 245.046 353.009 234C353.009 222.954 344.054 214 333.009 214ZM71.0088 308C71.0088 296.954 79.9631 288 91.0088 288H311.009C322.054 288 331.009 296.954 331.009 308C331.009 319.046 322.054 328 311.009 328H91.0088C79.9631 328 71.0088 319.046 71.0088 308Z" fill="white"/>
</svg>
