<svg width="1850" height="460" viewBox="0 0 1850 460" fill="none" xmlns="http://www.w3.org/2000/svg">
<path d="M1672.68 150.465C1676.06 150.541 1679.29 151.873 1681.75 154.202C1685.36 157.629 1696.36 185.554 1725.04 264.025C1731.97 283.005 1738.08 298.538 1738.61 298.555C1739.14 298.56 1749.68 269.709 1762.03 234.439C1774.38 199.17 1786.15 166.549 1788.2 161.948C1793.17 150.764 1797.66 149.197 1822.49 149.968L1837.06 150.42C1840.45 150.526 1843.71 151.789 1846.28 154C1852.25 159.122 1851.28 166.566 1841.58 190.316C1836.8 202.006 1815.96 254.204 1795.27 306.311C1774.58 358.419 1754.9 405.638 1751.54 411.244C1748.18 416.849 1740.25 426.38 1733.91 432.425C1714.68 450.753 1690.48 460 1661.75 460H1650.87C1647.89 460 1644.99 459.017 1642.63 457.204C1639.29 454.643 1637.34 450.676 1637.34 446.471V424.589C1637.34 422.085 1638.37 419.691 1640.19 417.968C1641.75 416.483 1649.16 414.445 1656.66 413.437C1664.15 412.431 1673.74 410.297 1677.96 408.697C1688.1 404.853 1701.01 390.971 1706.04 378.503C1708.64 372.084 1708.53 364.89 1705.74 358.553L1674.11 286.603C1654.32 241.58 1633.9 195.55 1628.74 184.317C1623.58 173.083 1619.36 162.299 1619.36 160.35C1619.36 158.297 1621.94 155.283 1625.51 153.175C1629.53 150.8 1634.13 149.596 1638.8 149.702L1672.68 150.465Z" fill="black"/>
<path fill-rule="evenodd" clip-rule="evenodd" d="M1032.63 148.667C1046.22 145.081 1075.22 145.56 1092.09 149.648C1112.17 154.514 1123.94 160.951 1139.72 175.695C1162.55 197.019 1171.71 220.203 1171.61 256.413C1171.54 282.5 1168.92 294.803 1159.28 314.451C1154.42 324.363 1147.82 333.326 1139.8 340.917L1137.23 343.354C1114.29 365.072 1091.34 373.922 1058.06 373.88C1033.25 373.85 1015.21 368.341 998.089 355.575C995.159 353.39 990.991 355.481 990.991 359.136V445.618C990.991 449.074 989.571 452.378 987.062 454.755C984.724 456.971 981.625 458.206 978.403 458.206H945.351C942.137 458.206 939.009 457.169 936.432 455.248C932.653 452.432 930.426 447.995 930.426 443.281V165.233C930.426 160.929 932.195 156.815 935.319 153.855C938.341 150.991 942.378 149.447 946.54 149.563L983.034 150.583C986.884 150.583 990.595 152.255 990.921 156.09C991.137 158.63 990.991 161.433 990.991 163.418C990.991 166.718 991.509 169.417 992.139 169.417C992.772 169.415 996.392 167.102 1000.18 164.274C1009.04 157.666 1021.84 151.511 1032.63 148.667ZM1072.53 199.373C1063.14 195.412 1039.02 193.523 1030.73 196.1C1002.6 204.83 989.57 228.685 991.398 268.072L991.72 275.023C992.028 281.685 993.631 288.224 996.438 294.273C1001.71 305.64 1011.74 315.088 1024.11 320.351C1030.36 323.008 1037.07 324.393 1043.86 324.426L1047.77 324.444C1065.8 324.536 1074.66 321.566 1085.79 311.699C1096.37 302.315 1101.88 291.071 1104.9 272.661L1105.08 271.563C1106.43 263.324 1106.43 254.92 1105.09 246.68C1101.21 222.933 1090.09 206.779 1072.53 199.373Z" fill="black"/>
<path fill-rule="evenodd" clip-rule="evenodd" d="M1279.62 149.462C1309.41 142.493 1347.4 146.261 1373.56 158.774C1396.95 169.967 1417.57 194.359 1425.09 219.734C1431.23 240.464 1431.21 264.959 1425.05 270.799C1423.25 272.503 1420.87 273.453 1418.39 273.453H1266.89C1262.47 273.453 1259.14 277.496 1260 281.838C1262.31 293.585 1271.01 307.39 1280.42 314.244C1291.67 322.447 1305.7 325.851 1327.66 325.704L1332.53 325.672C1341.46 325.613 1350.34 324.359 1358.94 321.943L1362.96 320.811C1387.64 313.877 1386.71 313.902 1395.49 319.93C1406.09 327.209 1410.03 333.109 1408.4 339.264C1405.37 350.734 1378.96 366.056 1353.38 371.192C1346.12 372.648 1330.32 373.854 1318.25 373.872L1308.33 373.885C1300.35 373.896 1292.4 372.952 1284.64 371.072L1282.02 370.437C1260.9 365.319 1245.57 357.213 1230.09 342.993L1228.7 341.719C1220.64 334.31 1213.9 325.573 1208.79 315.889C1199.39 298.094 1195.39 280.661 1195.43 257.642C1195.46 236.627 1199.01 221.402 1208 203.678C1212.48 194.858 1218.45 186.88 1225.65 180.098L1228.27 177.631C1243.77 163.026 1260.23 153.998 1279.62 149.462ZM1339.35 197.274C1329.58 192.582 1308.08 190.116 1298.55 192.597C1280.78 197.223 1269.23 206.53 1263.62 220.745C1261.49 226.131 1259.75 231.314 1259.75 232.266C1259.75 233.329 1279.81 233.162 1312.5 233.162C1341.65 233.162 1365.74 233.618 1365.74 233.162C1365.74 232.704 1363.97 227.849 1361.81 222.372C1356.79 209.671 1350.48 202.619 1339.35 197.274Z" fill="black"/>
<path d="M833.9 150.882C835.462 150.298 846.293 149.991 857.969 150.201L874.765 150.503C877.617 150.555 880.346 151.672 882.415 153.635C884.672 155.776 885.957 158.746 885.973 161.857L886.953 356.51C886.972 360.314 885.32 363.935 882.434 366.414C880.172 368.357 877.31 369.46 874.33 369.54L840.06 370.455C836.644 370.546 833.298 369.486 830.559 367.444C826.706 364.572 824.437 360.049 824.437 355.244V161.732C824.437 159.285 825.997 156.39 827.749 154.682C830.5 152 832.339 151.469 833.9 150.882Z" fill="black"/>
<path d="M785.348 67.1749C790.211 67.1749 794.154 71.1173 794.154 75.9806V115.208C794.154 119.902 790.38 123.725 785.685 123.784L707.091 124.775V360.34C707.091 365.849 702.626 370.314 697.118 370.314H648.838C643.336 370.314 638.876 365.854 638.876 360.351V124.772H559.564C554.282 124.772 550 120.49 550 115.208V75.9806C550 71.1173 553.942 67.1749 558.806 67.1749H785.348Z" fill="black"/>
<path d="M1588.95 60.026C1592.18 60.009 1595.35 60.9549 1598.04 62.7431C1600.32 64.2536 1602.92 68.0868 1603.84 71.2633C1606.17 79.3491 1603.76 97.0701 1599.83 100.795C1597.75 102.773 1595.04 103.969 1592.17 104.18L1572.87 105.603C1567.19 106.021 1561.75 108.084 1557.22 111.538C1548.09 118.494 1544.96 124.87 1544 138.475L1543.21 149.686H1589.29C1592.51 149.686 1595.63 150.724 1598.21 152.646C1601.99 155.463 1604.22 159.898 1604.22 164.611V187.322C1604.22 190.778 1602.79 194.082 1600.29 196.459C1597.95 198.675 1594.85 199.91 1591.63 199.91H1543.65L1543.53 358.31C1543.53 360.856 1542.67 363.327 1541.08 365.319C1539.01 367.917 1535.9 369.47 1532.58 369.562L1515.98 370.023C1501.85 370.416 1492.2 369.868 1488.64 368.473C1485.17 367.112 1482.53 364.222 1481.48 360.646L1481.23 359.793C1480.08 355.873 1479.32 322.667 1479.31 276.592L1479.3 199.91H1462.57C1458.62 199.91 1454.82 198.394 1451.95 195.674C1448.87 192.757 1447.12 188.702 1447.12 184.461V176.758C1447.12 168.867 1448.09 160.397 1449.28 157.933C1451.85 152.588 1459.65 149.692 1471.54 149.67L1480.25 149.656L1480.79 136.175C1482.3 98.348 1503.17 71.7738 1538.45 62.7712C1544.23 61.2949 1557.88 60.1873 1571.15 60.1191L1588.95 60.026Z" fill="black"/>
<path d="M846.202 63.0812C860.974 59.6804 875.703 63.5518 883.673 72.9344C887.294 77.7196 889.436 83.5134 889.829 89.5012C890.145 94.3071 889.339 99.1623 887.471 103.602L887.146 104.375C884.973 108.413 880.519 113.432 877.082 115.842C872.884 118.137 868.285 119.606 863.533 120.171L859.355 120.668C847.022 121.412 840.775 119.447 832.755 111.912C831.719 110.938 830.803 109.844 829.973 108.689C827.929 105.843 826.48 102.612 825.716 99.192L824.871 95.4137C824.339 89.3548 825.067 83.5686 826.875 79.4664C829.791 72.8512 839.495 64.6256 846.202 63.0812Z" fill="black"/>
<path fill-rule="evenodd" clip-rule="evenodd" d="M100 0C44.7715 0 0 44.7715 0 100V350C0 405.228 44.7715 450 100 450H350C405.228 450 450 405.228 450 350V100C450 44.7715 405.228 0 350 0H100ZM367.009 140H127.009C115.963 140 107.009 148.954 107.009 160C107.009 171.046 115.963 180 127.009 180H367.009C378.054 180 387.009 171.046 387.009 160C387.009 148.954 378.054 140 367.009 140ZM333.009 214H103.009C91.9631 214 83.0088 222.954 83.0088 234C83.0088 245.046 91.9631 254 103.009 254H333.009C344.054 254 353.009 245.046 353.009 234C353.009 222.954 344.054 214 333.009 214ZM71.0088 308C71.0088 296.954 79.9631 288 91.0088 288H311.009C322.054 288 331.009 296.954 331.009 308C331.009 319.046 322.054 328 311.009 328H91.0088C79.9631 328 71.0088 319.046 71.0088 308Z" fill="#4F46E5"/>
</svg>
