<svg width="1774" height="456" viewBox="0 0 1774 456" fill="none" xmlns="http://www.w3.org/2000/svg">
<path fill-rule="evenodd" clip-rule="evenodd" d="M106.976 0L369.633 0.674631L383.549 5.21202C425.534 18.8977 454.74 50.16 463.409 90.6986L466.173 103.623L466.163 229.031C466.158 298.006 465.434 358.673 464.554 363.846C457.309 406.477 421.947 442.239 376.824 452.57L361.84 456L93.0607 455.044L78.7713 450.379C61.262 444.661 41.4314 432.163 29.5214 419.334C17.775 406.681 5.86982 383.322 2.57011 366.448L0 353.305V103.983L2.51235 92.5555C7.86464 68.2174 17.5915 50.4682 34.699 33.8298C51.5055 17.4817 70.3802 7.68999 95.0906 2.49712L106.976 0ZM108.716 291.775L103.066 294.486C95.835 297.954 89.6832 309.522 91.2991 316.61C92.863 323.476 98.639 330.092 105.473 332.844L111.213 335.156H307.995L313.988 332.742C317.286 331.414 321.561 327.831 323.492 324.778C330.441 313.792 326.67 300.73 314.873 294.93L308.022 291.56L108.716 291.775ZM127.85 217.795L122.29 221.063C119.234 222.86 115.416 226.269 113.805 228.636L110.88 232.939L111.767 240.521C112.77 249.105 116.604 254.096 124.75 257.419L130.347 259.702H344.524L350.516 257.288C357.424 254.507 363.53 245.931 363.539 238.996C363.549 231.446 358.628 223.334 352.278 220.428L346.496 217.783L127.85 217.795ZM146.984 142.341L141.534 145.545C133.662 150.173 130.459 155.467 130.459 163.858V171.229L143.965 184.248H382.165L388.051 180.426C395.895 175.329 398.637 169.87 397.743 161.124C396.905 152.935 393.003 147.915 384.91 144.613L379.313 142.329L146.984 142.341Z" fill="white"/>
<path d="M1615.86 153.228L1619.37 156.611C1622.69 159.815 1632.8 185.918 1659.15 259.273C1665.52 277.015 1671.14 291.535 1671.63 291.55C1672.12 291.555 1681.8 264.586 1693.15 231.616C1704.5 198.646 1715.32 168.153 1717.2 163.852C1721.77 153.398 1725.89 151.932 1748.72 152.653L1766.93 153.228L1770.58 156.423C1776.07 161.21 1775.18 168.169 1766.26 190.37C1761.87 201.298 1742.72 250.092 1723.7 298.801C1704.69 347.511 1686.6 391.651 1683.51 396.891C1680.42 402.131 1673.13 411.041 1667.31 416.691C1649.63 433.824 1627.4 442.468 1600.99 442.468H1586.77L1578.55 436.057V405.699L1581.17 403.177C1582.61 401.789 1589.42 399.884 1596.31 398.941C1603.2 398.001 1612.01 396.006 1615.88 394.51C1625.2 390.917 1637.07 377.941 1641.7 366.285L1645.42 356.901L1612.35 280.378C1594.16 238.291 1575.39 195.263 1570.65 184.762C1565.91 174.261 1562.03 164.18 1562.03 162.359C1562.03 160.439 1564.4 157.622 1567.68 155.652L1573.33 152.254L1615.86 153.228Z" fill="white"/>
<path fill-rule="evenodd" clip-rule="evenodd" d="M1022.8 151.437C1035.29 148.085 1061.94 148.532 1077.44 152.354C1095.89 156.903 1106.71 162.92 1121.22 176.703C1142.2 196.636 1150.62 218.308 1150.53 252.157C1150.46 276.543 1148.06 288.043 1139.2 306.41L1132.44 320.42L1118.93 333.428C1097.85 353.73 1076.75 362.003 1046.17 361.964C1023.37 361.936 1006.78 356.786 991.053 344.853L984.53 339.904V434.084L977.572 440.791H938.035L928.867 433.842V160.621L937.702 152.105L977.217 153.228L980.874 156.423C983.199 158.455 984.53 161.658 984.53 165.226C984.53 168.311 985.005 170.834 985.584 170.834C986.166 170.832 989.493 168.67 992.977 166.026C1001.12 159.85 1012.88 154.096 1022.8 151.437ZM1059.47 198.836C1050.84 195.134 1028.67 193.368 1021.05 195.777C995.201 203.938 983.223 226.237 984.903 263.055L985.629 278.985L989.536 287.548C994.382 298.174 1003.6 307.006 1014.97 311.925L1023.67 315.688L1036.71 315.752C1053.28 315.838 1061.42 313.062 1071.65 303.838C1081.38 295.065 1086.44 284.555 1089.22 267.346L1091.26 254.69L1089.39 243.059C1085.83 220.86 1075.61 205.759 1059.47 198.836Z" fill="white"/>
<path fill-rule="evenodd" clip-rule="evenodd" d="M1249.8 152.18C1277.17 145.666 1312.09 149.188 1336.13 160.885C1357.63 171.348 1376.58 194.149 1383.49 217.87C1389.13 237.248 1389.11 260.145 1383.45 265.605L1380.88 268.086H1230.24L1231.76 275.924C1233.89 286.905 1241.88 299.81 1250.52 306.217C1260.87 313.885 1273.76 317.067 1293.94 316.929L1310.79 316.816L1326.39 312.356C1349.06 305.874 1348.21 305.897 1356.28 311.532C1366.03 318.337 1369.65 323.852 1368.15 329.605C1365.36 340.328 1341.09 354.65 1317.58 359.451C1310.91 360.812 1296.39 361.939 1285.3 361.956L1265.14 361.984L1252 358.745C1232.59 353.961 1218.5 346.384 1204.27 333.091L1191.8 321.434L1184.7 307.755C1176.06 291.12 1172.38 274.824 1172.42 253.306C1172.45 233.661 1175.71 219.429 1183.98 202.861L1190.19 190.4L1202.6 178.512C1216.85 164.86 1231.98 156.421 1249.8 152.18ZM1304.69 196.874C1295.71 192.488 1275.95 190.184 1267.19 192.502C1250.86 196.827 1240.24 205.526 1235.09 218.815C1233.13 223.85 1231.53 228.695 1231.53 229.584C1231.53 230.579 1250.19 231.197 1280.24 231.197C1307.02 231.197 1328.94 230.849 1328.94 230.423C1328.94 229.994 1327.31 225.456 1325.33 220.336C1320.72 208.463 1314.92 201.871 1304.69 196.874Z" fill="white"/>
<path d="M840.155 153.508C841.591 152.962 851.545 152.675 862.275 152.871L881.786 153.228L887.99 159.215L888.941 351.332L881.547 357.792L840.97 358.894L831.458 351.681V159.617L834.502 157.06C836.175 155.655 838.72 154.056 840.155 153.508Z" fill="white"/>
<path d="M795.087 75.2591L803.627 83.4905V120.16L796.981 128.077L723.612 129.103V351.681L714.446 358.63H670.074L661.861 352.22L660.919 129.1L585.883 128.077L579.237 120.16V83.4905L587.777 75.2591H795.087Z" fill="white"/>
<path d="M1538.64 68.552L1542.44 71.1163C1544.53 72.5283 1546.93 76.1115 1547.77 79.0809C1549.9 86.6394 1547.7 103.205 1544.09 106.687L1541.12 109.546L1511.3 111.781L1504.92 116.729C1496.53 123.232 1493.65 129.192 1492.77 141.91L1492.04 152.39H1538.95L1548.11 159.341V192.632L1541.15 199.339H1492.45L1492.34 351.085L1487.09 357.792L1467.02 358.359C1454.04 358.726 1445.16 358.214 1441.89 356.909L1436.84 354.892L1435.08 348.796C1434.03 345.131 1433.32 314.091 1433.32 271.02L1433.31 199.339H1412.28L1403.74 191.107V177.697C1403.74 170.32 1404.63 162.402 1405.72 160.099C1408.08 155.102 1415.25 152.395 1426.18 152.375L1434.18 152.362L1434.67 139.76C1436.06 104.399 1455.25 79.5581 1487.67 71.1425C1492.99 69.7625 1505.53 68.7271 1517.72 68.6634L1538.64 68.552Z" fill="white"/>
<path d="M851.462 71.4323C865.038 68.2533 878.574 71.8722 885.899 80.643L891.097 86.8637L892.723 103.173L889.091 110.034C887.094 113.808 882.932 118.631 879.841 120.752L874.222 124.61L863.549 125.264C851.502 126.003 845.773 123.882 837.692 115.688L832.62 110.545L831.857 101.656C831.368 95.9926 832.037 90.5838 833.698 86.7491C836.379 80.5652 845.297 72.876 851.462 71.4323Z" fill="white"/>
</svg>
