<svg width="987" height="272" viewBox="0 0 987 272" fill="none" xmlns="http://www.w3.org/2000/svg" xmlns:xlink="http://www.w3.org/1999/xlink">
<path fill-rule="evenodd" clip-rule="evenodd" d="M58.9756 0L203.778 0.402412L211.449 3.10892C234.595 11.2723 250.696 29.92 255.476 54.1009L257 61.8102L256.994 136.615C256.991 177.758 256.592 213.945 256.107 217.031C252.113 242.46 232.618 263.792 207.742 269.954L199.481 272L51.304 271.43L43.4264 268.647C33.7735 265.236 22.841 257.781 16.2751 250.129C9.7993 242.582 3.23601 228.648 1.41689 218.583L0 210.744V62.0251L1.38505 55.2085C4.33575 40.6911 9.69813 30.1039 19.1294 20.1792C28.3948 10.4277 38.8003 4.58701 52.4231 1.48951L58.9756 0ZM59.9346 174.041L56.8199 175.659C52.8335 177.727 49.442 184.627 50.3329 188.855C51.1951 192.951 54.3793 196.897 58.1469 198.538L61.3112 199.918H169.797L173.1 198.478C174.919 197.686 177.276 195.548 178.34 193.727C182.171 187.174 180.092 179.383 173.588 175.923L169.812 173.913L59.9346 174.041ZM70.4831 129.913L67.418 131.862C65.7331 132.934 63.6283 134.967 62.7403 136.379L61.1277 138.946L61.6165 143.469C62.1699 148.589 64.2833 151.566 68.774 153.548L71.8597 154.91H189.935L193.239 153.47C197.046 151.811 200.413 146.696 200.418 142.559C200.423 138.056 197.711 133.217 194.21 131.483L191.022 129.906L70.4831 129.913ZM81.0316 84.905L78.0274 86.8164C73.6872 89.5768 71.9216 92.7345 71.9215 97.7401V102.136L79.3675 109.902H210.686L213.931 107.623C218.256 104.582 219.767 101.326 219.274 96.109C218.812 91.2244 216.661 88.23 212.199 86.2607L209.114 84.8981L81.0316 84.905Z" fill="#4F46E5"/>
<path d="M895.95 99.5L897.964 101.518C899.872 103.428 905.687 118.996 920.836 162.744C924.5 173.325 927.728 181.985 928.011 181.994C928.291 181.997 933.859 165.913 940.382 146.25C946.906 126.587 953.128 108.401 954.208 105.836C956.834 99.6011 959.205 98.7272 972.329 99.1572L982.795 99.5L984.898 101.405C988.049 104.26 987.539 108.411 982.411 121.651C979.888 128.169 968.878 157.268 957.946 186.318C947.013 215.368 936.616 241.693 934.841 244.818C933.066 247.943 928.873 253.257 925.523 256.627C915.365 266.845 902.58 272 887.401 272H879.222L874.5 268.177V250.071L876.005 248.567C876.832 247.739 880.749 246.603 884.709 246.041C888.669 245.48 893.733 244.29 895.962 243.398C901.32 241.255 908.142 233.516 910.802 226.565L912.944 220.969L893.929 175.331C883.472 150.231 872.684 124.569 869.958 118.307C867.231 112.044 865 106.032 865 104.945C865 103.8 866.365 102.12 868.25 100.945L871.5 98.9189L895.95 99.5Z" fill="black"/>
<path d="M895.95 99.5L897.964 101.518C899.872 103.428 905.687 118.996 920.836 162.744C924.5 173.325 927.728 181.985 928.011 181.994C928.291 181.997 933.859 165.913 940.382 146.25C946.906 126.587 953.128 108.401 954.208 105.836C956.834 99.6011 959.205 98.7272 972.329 99.1572L982.795 99.5L984.898 101.405C988.049 104.26 987.539 108.411 982.411 121.651C979.888 128.169 968.878 157.268 957.946 186.318C947.013 215.368 936.616 241.693 934.841 244.818C933.066 247.943 928.873 253.257 925.523 256.627C915.365 266.845 902.58 272 887.401 272H879.222L874.5 268.177V250.071L876.005 248.567C876.832 247.739 880.749 246.603 884.709 246.041C888.669 245.48 893.733 244.29 895.962 243.398C901.32 241.255 908.142 233.516 910.802 226.565L912.944 220.969L893.929 175.331C883.472 150.231 872.684 124.569 869.958 118.307C867.231 112.044 865 106.032 865 104.945C865 103.8 866.365 102.12 868.25 100.945L871.5 98.9189L895.95 99.5Z"/>
<path fill-rule="evenodd" clip-rule="evenodd" d="M555 98.4316C562.183 96.4326 577.504 96.6995 586.415 98.9785C597.023 101.691 603.243 105.28 611.583 113.5C623.644 125.388 628.483 138.313 628.431 158.5C628.393 173.044 627.012 179.902 621.917 190.856L618.03 199.212L610.265 206.97C598.146 219.078 586.02 224.011 568.436 223.988C555.328 223.971 545.794 220.9 536.75 213.783L533 210.832V267L529 271H506.271L501 266.855V103.909L506.079 98.8301L528.796 99.5L530.898 101.405C532.235 102.617 533 104.527 533 106.655C533 108.495 533.273 110 533.606 110C533.941 109.999 535.853 108.709 537.856 107.133C542.538 103.449 549.3 100.018 555 98.4316ZM576.082 126.7C571.12 124.492 558.377 123.439 553.994 124.876C539.135 129.743 532.249 143.042 533.215 165L533.632 174.5L535.878 179.607C538.664 185.944 543.962 191.212 550.5 194.146L555.5 196.39L563 196.428C572.527 196.479 577.205 194.823 583.087 189.322C588.68 184.09 591.588 177.822 593.184 167.559L594.357 160.011L593.283 153.074C591.234 139.835 585.36 130.829 576.082 126.7Z" fill="black"/>
<path fill-rule="evenodd" clip-rule="evenodd" d="M555 98.4316C562.183 96.4326 577.504 96.6995 586.415 98.9785C597.023 101.691 603.243 105.28 611.583 113.5C623.644 125.388 628.483 138.313 628.431 158.5C628.393 173.044 627.012 179.902 621.917 190.856L618.03 199.212L610.265 206.97C598.146 219.078 586.02 224.011 568.436 223.988C555.328 223.971 545.794 220.9 536.75 213.783L533 210.832V267L529 271H506.271L501 266.855V103.909L506.079 98.8301L528.796 99.5L530.898 101.405C532.235 102.617 533 104.527 533 106.655C533 108.495 533.273 110 533.606 110C533.941 109.999 535.853 108.709 537.856 107.133C542.538 103.449 549.3 100.018 555 98.4316ZM576.082 126.7C571.12 124.492 558.377 123.439 553.994 124.876C539.135 129.743 532.249 143.042 533.215 165L533.632 174.5L535.878 179.607C538.664 185.944 543.962 191.212 550.5 194.146L555.5 196.39L563 196.428C572.527 196.479 577.205 194.823 583.087 189.322C588.68 184.09 591.588 177.822 593.184 167.559L594.357 160.011L593.283 153.074C591.234 139.835 585.36 130.829 576.082 126.7Z"/>
<path fill-rule="evenodd" clip-rule="evenodd" d="M685.5 98.875C701.238 94.99 721.311 97.0904 735.131 104.066C747.492 110.306 758.387 123.905 762.359 138.052C765.603 149.609 765.593 163.265 762.337 166.521L760.857 168H674.258L675.132 172.675C676.355 179.224 680.95 186.92 685.919 190.741C691.864 195.314 699.278 197.212 710.879 197.13L720.563 197.062L729.532 194.402C742.569 190.536 742.079 190.55 746.718 193.911C752.321 197.969 754.403 201.258 753.542 204.689C751.937 211.084 737.985 219.626 724.471 222.489C720.637 223.301 712.284 223.973 705.91 223.983L694.32 224L686.766 222.068C675.61 219.215 667.507 214.696 659.329 206.769L652.158 199.816L648.075 191.658C643.108 181.737 640.995 172.018 641.015 159.186C641.033 147.47 642.908 138.981 647.66 129.101L651.234 121.669L658.367 114.579C666.559 106.437 675.255 101.404 685.5 98.875ZM717.059 125.53C711.895 122.914 700.537 121.54 695.5 122.923C686.11 125.502 680.008 130.69 677.043 138.615C675.919 141.618 675 144.508 675 145.038C675 145.631 685.728 146 703 146C718.4 146 731 145.792 731 145.538C731 145.282 730.065 142.576 728.922 139.522C726.273 132.441 722.94 128.51 717.059 125.53Z" fill="black"/>
<path fill-rule="evenodd" clip-rule="evenodd" d="M685.5 98.875C701.238 94.99 721.311 97.0904 735.131 104.066C747.492 110.306 758.387 123.905 762.359 138.052C765.603 149.609 765.593 163.265 762.337 166.521L760.857 168H674.258L675.132 172.675C676.355 179.224 680.95 186.92 685.919 190.741C691.864 195.314 699.278 197.212 710.879 197.13L720.563 197.062L729.532 194.402C742.569 190.536 742.079 190.55 746.718 193.911C752.321 197.969 754.403 201.258 753.542 204.689C751.937 211.084 737.985 219.626 724.471 222.489C720.637 223.301 712.284 223.973 705.91 223.983L694.32 224L686.766 222.068C675.61 219.215 667.507 214.696 659.329 206.769L652.158 199.816L648.075 191.658C643.108 181.737 640.995 172.018 641.015 159.186C641.033 147.47 642.908 138.981 647.66 129.101L651.234 121.669L658.367 114.579C666.559 106.437 675.255 101.404 685.5 98.875ZM717.059 125.53C711.895 122.914 700.537 121.54 695.5 122.923C686.11 125.502 680.008 130.69 677.043 138.615C675.919 141.618 675 144.508 675 145.038C675 145.631 685.728 146 703 146C718.4 146 731 145.792 731 145.538C731 145.282 730.065 142.576 728.922 139.522C726.273 132.441 722.94 128.51 717.059 125.53Z"/>
<path d="M450 99.667C450.825 99.341 456.548 99.1701 462.717 99.2871L473.934 99.5L477.5 103.07L478.047 217.647L473.796 221.5L450.469 222.157L445 217.855V103.311L446.75 101.785C447.712 100.947 449.175 99.994 450 99.667Z" fill="black"/>
<path d="M450 99.667C450.825 99.341 456.548 99.1701 462.717 99.2871L473.934 99.5L477.5 103.07L478.047 217.647L473.796 221.5L450.469 222.157L445 217.855V103.311L446.75 101.785C447.712 100.947 449.175 99.994 450 99.667Z"/>
<path d="M424.091 53L429 57.9092V79.7783L425.18 84.5L383 85.1123V217.855L377.73 222H352.222L347.5 218.177L346.958 85.1104L303.82 84.5L300 79.7783V57.9092L304.909 53H424.091Z" fill="black"/>
<path d="M424.091 53L429 57.9092V79.7783L425.18 84.5L383 85.1123V217.855L377.73 222H352.222L347.5 218.177L346.958 85.1104L303.82 84.5L300 79.7783V57.9092L304.909 53H424.091Z"/>
<path d="M851.555 49L853.739 50.5293C854.94 51.3714 856.318 53.5084 856.801 55.2793C858.031 59.7871 856.761 69.6666 854.686 71.7432L852.98 73.4482L835.838 74.7812L832.169 77.7324C827.345 81.6103 825.693 85.1652 825.186 92.75L824.767 99H851.73L857 103.146V123L853 127H825L824.937 217.5L821.918 221.5L810.379 221.838C802.917 222.057 797.814 221.751 795.936 220.974L793.03 219.771L792.021 216.135C791.415 213.949 791.009 195.437 791.006 169.75L791 127H778.909L774 122.091V114.093C774 109.693 774.512 104.971 775.138 103.598C776.496 100.618 780.616 99.0032 786.899 98.9912L791.5 98.9834L791.785 91.4678C792.584 70.379 803.614 55.5639 822.251 50.5449C825.309 49.7219 832.52 49.1044 839.527 49.0664L851.555 49Z" fill="black"/>
<path d="M851.555 49L853.739 50.5293C854.94 51.3714 856.318 53.5084 856.801 55.2793C858.031 59.7871 856.761 69.6666 854.686 71.7432L852.98 73.4482L835.838 74.7812L832.169 77.7324C827.345 81.6103 825.693 85.1652 825.186 92.75L824.767 99H851.73L857 103.146V123L853 127H825L824.937 217.5L821.918 221.5L810.379 221.838C802.917 222.057 797.814 221.751 795.936 220.974L793.03 219.771L792.021 216.135C791.415 213.949 791.009 195.437 791.006 169.75L791 127H778.909L774 122.091V114.093C774 109.693 774.512 104.971 775.138 103.598C776.496 100.618 780.616 99.0032 786.899 98.9912L791.5 98.9834L791.785 91.4678C792.584 70.379 803.614 55.5639 822.251 50.5449C825.309 49.7219 832.52 49.1044 839.527 49.0664L851.555 49Z"/>
<path d="M456.5 50.7178C464.305 48.8218 472.087 50.9801 476.298 56.2109L479.286 59.9209L480.221 69.6475L478.133 73.7393C476.985 75.99 474.592 78.8667 472.815 80.1318L469.585 82.4326L463.449 82.8223C456.523 83.2633 453.23 81.9983 448.584 77.1113L445.668 74.0439L445.229 68.7432C444.949 65.3653 445.333 62.1395 446.288 59.8525C447.829 56.1645 452.956 51.5788 456.5 50.7178Z" fill="black"/>
<path d="M456.5 50.7178C464.305 48.8218 472.087 50.9801 476.298 56.2109L479.286 59.9209L480.221 69.6475L478.133 73.7393C476.985 75.99 474.592 78.8667 472.815 80.1318L469.585 82.4326L463.449 82.8223C456.523 83.2633 453.23 81.9983 448.584 77.1113L445.668 74.0439L445.229 68.7432C444.949 65.3653 445.333 62.1395 446.288 59.8525C447.829 56.1645 452.956 51.5788 456.5 50.7178Z"/>
</svg>
